<svg xmlns="http://www.w3.org/2000/svg" width="512" height="512" viewBox="0 0 512 512" style="overflow: visible;" data-bbox="42.094 105.15 427.813 301.7">
  <g transform="matrix(1.142497833791859, 0, 0, 1.142497833791859, 44.64931727177428, -39.09119759244015)" data-uid="o_f8bmk1gfl_5">
    <svg version="1.1" id="Calque_1" xmlns="http://www.w3.org/2000/svg" x="0px" y="0px" viewBox="0 0 360 360" enable-background="new 0 0 360 360" width="360" height="360" data-uid="o_f8bmk1gfl_6">
      <g data-uid="o_f8bmk1gfl_7">
        <g data-uid="o_f8bmk1gfl_8">
          <path class="st0" d="M313.66 281.96c0 0-79.85-132.26-169.09-192.18c25.46 22.44 105.37 90.03 162.56 195.56c5.58 2.5 9.23 5.41 9.23 5.41L313.66 281.96z" fill="#1f4339" data-uid="o_f8bmk1gfl_9"></path>
          <path class="st0" d="M53.62 66.85c25.09 6.37 43.07 23.48 57.73 44.04c19.31 5.26 40.04 7.9 48.32 17.41c-15.35-6.37-29.75-7.33-40.98-6.46c13.96 22.08 25.1 46.45 37.43 65.33c27.65 10.96 58.21 5.83 76.02 22.54c-10.16-5.08-30.38-0.57-57.62-0.6c0.84 0.7 1.68 1.42 2.53 2.06c39.24 29.21 102.16 41.51 102.16 41.51 C217.72 162.22 136.9 62.58 53.62 66.85z" fill="#1f4339" data-uid="o_f8bmk1gfl_10"></path>
          <path class="st1" d="M268.53 190.86c2.24-7.7 2.63-16.97 1.96-26.54c-16.47-47.07-39.18-76.21-70.66-92.19 c8.31 13.05 16.69 29.59 16.76 43.33c-4.5-17.44-20.98-36.88-34.81-50.77c-33.04-10.8-74.42-10.51-126.37-3.2c135.67-3.87 233.33 175.19 233.33 175.19c-4.16-22.99-8.99-43.37-14.61-61.36C272.92 181.09 271.12 186.44 268.53 190.86z" fill="#1f4339" data-uid="o_f8bmk1gfl_11"></path>
        </g>
        <g data-uid="o_f8bmk1gfl_12">
          <path class="st1" d="M131.04 198.63c0 0-41.06 50.29-35.8 53.25c9.53 4.6 40.76-8.22 88.09-8.22 c47.33 0 101.89 22.68 101.89 22.68s-64.47-18.96-101.89-17.09c-46.02 2.3-90.39 15.12-109.78 20.71 C78.15 255.74 131.04 198.63 131.04 198.63z" fill="#1f4339" data-uid="o_f8bmk1gfl_13"></path>
          <path class="st1" d="M86.04 262.39l20.71 28.59c0 0 91.21-35 177.99 0c-83.43-40.84-167.44-10.02-175.36-10.52 C101.46 279.98 86.04 262.39 86.04 262.39z" fill="#1f4339" data-uid="o_f8bmk1gfl_14"></path>
          <path class="st1" d="M96.23 271.27c0 0 85.79-37.47 187.68 3.62C197.47 237.09 124.83 257.13 96.23 271.27z" fill="#1f4339" data-uid="o_f8bmk1gfl_15"></path>
          <path class="st1" d="M98.86 278.5c0 0 82.17-38.46 184.06 2.63C196.48 243.33 127.46 264.37 98.86 278.5z" fill="#1f4339" data-uid="o_f8bmk1gfl_16"></path>
        </g>
      </g>
    </svg>
  </g>
  <path text="Draw" fill="#1f4339" space="preserve" text-anchor="middle" offset="0.5" font-scale="contain" font-size="48" font-family="Yellowtail" transform="matrix(4.287769140747282, 0, 0, 4.287769140747282, 233.93514039427146, 472.8278795223228)" data-fl-textpath="" font-style="normal" font-weight="400" data-uid="o_f8bmk1gfl_17" d="M-39.003-22.97L-39.003-22.97L-39.493-23.04L-39.583-23.04Q-40.173-23.04 -40.793-23.51Q-41.413-23.98 -41.413-25.17Q-41.413-26.37 -40.113-27.89Q-38.813-29.41 -36.583-30.69Q-34.363-31.97 -31.043-32.79Q-27.723-33.61 -24.043-33.61L-24.043-33.61Q-16.523-33.61 -12.293-30.64Q-8.063-27.68 -8.063-22.95L-8.063-22.95Q-8.063-19.99 -9.373-17.04Q-10.683-14.09 -12.893-11.59Q-15.093-9.09 -18.073-6.93Q-21.043-4.76 -24.303-3.23L-24.303-3.23Q-31.333 0 -37.753 0L-37.753 0Q-40.923 0 -41.743-0.52L-41.743-0.52Q-42.043-0.68 -42.343-1.02Q-42.633-1.36 -42.793-1.48L-42.793-1.48Q-43.243-1.76 -43.243-2.68Q-43.243-3.61 -43.053-4.36L-43.053-4.36Q-42.353-6.87 -36.733-15.25Q-31.123-23.63 -27.353-28.76L-27.353-28.76Q-27.093-29.11 -24.703-29.27L-24.703-29.27Q-23.723-29.27 -23.343-29.13Q-22.973-28.99 -22.973-28.63Q-22.973-28.27 -24.183-26.57Q-25.403-24.87 -32.013-14.68Q-38.623-4.5 -38.623-4.22Q-38.623-3.94 -36.553-3.94Q-34.473-3.94 -31.443-4.82Q-28.403-5.7 -25.733-7.13Q-23.063-8.55 -20.623-10.44Q-18.183-12.33 -16.453-14.3L-16.453-14.3Q-12.653-18.61 -12.653-21.96Q-12.653-25.31 -15.713-27.66Q-18.773-30 -24.093-30L-24.093-30Q-27.683-30 -30.863-28.8Q-34.053-27.61 -35.253-26.67Q-36.443-25.73 -36.443-25.41L-36.443-25.41Q-36.443-25.22 -36.163-25.22L-36.163-25.22L-35.153-25.41Q-34.943-25.41 -34.943-25.31Q-34.943-25.22 -35.343-24.98Q-35.743-24.75 -35.983-24.48Q-36.233-24.21 -37.223-23.61Q-38.203-23.02 -39.003-22.97ZM-2.509-14.25L-3.489-12.77Q 2.041-19.05  5.931-19.05L 5.931-19.05Q 6.891-19.05  7.511-18.48Q 8.131-17.91  8.131-16.99Q 8.131-16.08  6.831-13.93Q 5.531-11.79  4.431-10.31L 4.431-10.31Q 3.841-9.56  3.101-9.56Q 2.371-9.56  1.961-10.1Q 1.551-10.64  1.551-11.37L 1.551-11.37Q 1.551-12.98  3.281-15.02L 3.281-15.02L 3.231-15.07Q 2.461-15 -0.599-12.02Q-3.659-9.05 -5.799-6.69Q-7.949-4.34 -10.449-0.96L-10.449-0.96Q-11.179 0.05 -11.679 0.05Q-12.189 0.05-13.019-0.27Q-13.849-0.59-14.029-0.73Q-14.199-0.87-14.199-1.2Q-14.199-1.52-14.019-1.96Q-13.829-2.39-13.319-3.19Q-12.819-3.98 -11.799-5.77Q-10.779-7.55 -8.629-11.16Q-6.469-14.77 -6.049-15.52L-6.049-15.52Q-5.159-17.06 -4.589-17.77L-4.589-17.77Q-3.539-19.1 -1.029-19.1L-1.029-19.1Q-0.469-19.1 -0.469-18.4L-0.469-18.4Q-0.469-17.3 -2.509-14.25L-2.509-14.25ZM 23.488-17.81L 23.488-17.81Q 25.268-17.81  25.268-16.59L 25.268-16.59Q 25.268-15.94  24.958-15.63Q 24.658-15.33  23.658-13.61Q 22.668-11.88  21.458-9.2Q 20.248-6.52  19.898-4.62L 19.898-4.62Q 19.828-4.38  19.828-3.96L 19.828-3.96Q 19.828-2.67  20.528-2.67Q 21.238-2.67  22.198-3.34Q 23.158-4.01  23.908-4.77Q 24.658-5.53  25.368-6.33Q 26.088-7.13  26.228-7.24Q 26.368-7.36  26.648-7.36L 26.648-7.36Q 27.098-7.36  27.188-6.68Q 27.278-6  27.278-5.27Q 27.278-4.55  27.138-4.27L 27.138-4.27Q 26.458-2.93  24.148-1.05Q 21.848 0.82  19.958 0.82Q 18.068 0.82  17.178-0.33Q 16.288-1.48  16.288-2.87Q 16.288-4.27  16.758-5.32L 16.758-5.32Q 14.808-2.79  12.288-1.03Q 9.778 0.73  8.178 0.73Q 6.588 0.73  5.578-0.23L 5.578-0.23Q 4.288-1.43  4.288-3.55Q 4.288-5.67  5.238-7.82Q 6.188-9.96  7.738-11.73Q 9.278-13.5  11.128-14.95L 11.128-14.95Q 15.028-18  18.308-18L 18.308-18Q 19.568-18  20.368-17.58Q 21.168-17.16  21.378-16.52L 21.378-16.52Q 21.938-17.37  22.328-17.59Q 22.708-17.81  23.488-17.81ZM 20.368-15.21L 20.368-15.21Q 16.358-15.21  12.068-10.76L 12.068-10.76Q 10.548-9.16  9.268-6.94Q 7.988-4.71  7.988-3.89Q 7.988-3.07  8.458-3.07L 8.458-3.07Q 9.118-3.07  12.118-5.66Q 15.118-8.25  16.098-9.47L 16.098-9.47Q 17.178-10.83  20.368-15.21ZM 49.495-17.41L 49.495-17.41L 49.215-18.54Q 49.215-19.5  49.885-20.05Q 50.555-20.6  51.565-20.6L 51.565-20.6Q 53.535-20.6  53.535-18.09L 53.535-18.09Q 53.535-16.29  51.745-13.11Q 49.965-9.94  47.545-6.97Q 45.115-4.01  42.395-1.82Q 39.675 0.38  38.215 0.38Q 36.745 0.38  36.145-0.42Q 35.535-1.22  35.535-1.96Q 35.535-2.7  35.605-3.35L 35.605-3.35Q 35.855-5.65  36.865-7.73L 36.865-7.73Q 34.355-4.45  31.475-1.84Q 28.595 0.77  26.645 0.77L 26.645 0.77Q 25.715 0.77  25.145 0.21Q 24.585-0.35  24.585-1.7Q 24.585-3.05  26.205-6.76Q 27.825-10.48  29.295-12.73L 29.295-12.73Q 28.755-12.4  28.345-12.4Q 27.935-12.4  27.455-12.86Q 26.975-13.31  26.975-13.57Q 26.975-13.83  27.325-14.32Q 27.675-14.81  30.025-16.75Q 32.365-18.68  33.235-18.68Q 34.105-18.68  34.885-18.35Q 35.675-18.02  35.675-17.45Q 35.675-16.88  32.415-10.76Q 29.155-4.64  29.155-4.13L 29.155-4.13Q 29.155-4.05  29.205-4.05L 29.205-4.05Q 29.695-4.05  34.115-9.07Q 38.535-14.09  41.065-17.32L 41.065-17.32Q 41.415-17.91  42.115-17.91L 42.115-17.91L 42.325-17.88L 43.615-18.14Q 43.925-18.14  44.215-17.91Q 44.505-17.67  44.505-17.48Q 44.505-17.3  43.675-15.8Q 42.845-14.3  40.965-10.13Q 39.095-5.95  39.095-4.27L 39.095-4.27Q 39.095-3.84  39.395-3.84L 39.395-3.84Q 40.285-3.84  43.115-7.07Q 45.935-10.29  47.715-13.24Q 49.495-16.2  49.495-17.41Z" style=""></path>
</svg>
